<?xml version="1.0" encoding="UTF-8" standalone="no"?>
<svg
   xmlns:dc="http://purl.org/dc/elements/1.1/"
   xmlns:cc="http://creativecommons.org/ns#"
   xmlns:rdf="http://www.w3.org/1999/02/22-rdf-syntax-ns#"
   xmlns:svg="http://www.w3.org/2000/svg"
   xmlns="http://www.w3.org/2000/svg"
   xmlns:sodipodi="http://sodipodi.sourceforge.net/DTD/sodipodi-0.dtd"
   xmlns:inkscape="http://www.inkscape.org/namespaces/inkscape"
   width="100mm"
   height="100mm"
   viewBox="0 0 100 100"
   version="1.1"
   id="svg8"
   inkscape:version="0.92.4 (5da689c313, 2019-01-14)"
   sodipodi:docname="weave.svg">
  <g
     inkscape:label="Layer 1"
     inkscape:groupmode="layer"
     id="layer1"
     transform="translate(0,-197)">
    <path
       style="fill:#ffffff;fill-opacity:1;stroke:#000000;stroke-width:1;stroke-miterlimit:4;stroke-dasharray:none;stroke-opacity:1"
       d="m 58.636071,288.87934 c 0,0 -4.233321,-13.95979 -4.233321,-20.93968 0.5913,-14.66176 8.674994,-28.681 8.995794,-41.87932 0,-6.9799 -4.762473,-20.93968 -4.762473,-20.93968 h 14.313161 c 0,0 4.7625,13.95978 4.7625,20.93968 -1.47295,14.54752 -8.70548,28.44076 -8.99583,41.87932 0,6.97989 4.23333,20.93968 4.23333,20.93968 z"
       id="rect815-3-6-3"
       inkscape:connector-curvature="0"
       sodipodi:nodetypes="ccccccccc" />
    <path
       style="fill:#ffffff;fill-opacity:1;stroke:#000000;stroke-width:1;stroke-miterlimit:4;stroke-dasharray:none;stroke-opacity:1"
       d="m 8.1206472,222.76067 c 0,0 13.9597848,-4.23333 20.9396768,-4.23333 14.661808,0.5913 28.681045,8.67503 41.879352,8.99583 6.979893,0 20.939677,-4.7625 20.939677,-4.7625 v 14.3132 c 0,0 -13.959784,4.7625 -20.939677,4.7625 -14.547518,-1.47295 -28.440744,-8.70548 -41.879352,-8.99583 -6.979892,0 -20.9396768,4.23333 -20.9396768,4.23333 z"
       id="rect815"
       inkscape:connector-curvature="0"
       sodipodi:nodetypes="ccccccccc" />
    <path
       style="fill:#ffffff;fill-opacity:1;stroke:#000000;stroke-width:1;stroke-miterlimit:4;stroke-dasharray:none;stroke-opacity:1"
       d="m 27.050765,288.87936 c 0,0 -4.23333,-13.95979 -4.23333,-20.93968 0.5913,-14.66181 8.67503,-28.68104 8.99583,-41.87936 0,-6.97989 -4.7625,-20.93968 -4.7625,-20.93968 h 14.3132 c 0,0 4.7625,13.95979 4.7625,20.93968 -1.47295,14.54753 -8.70548,28.44075 -8.99583,41.87936 0,6.97989 4.23333,20.93968 4.23333,20.93968 z"
       id="rect815-7"
       inkscape:connector-curvature="0"
       sodipodi:nodetypes="ccccccccc" />
    <path
       style="fill:#ffffff;fill-opacity:1;stroke:#000000;stroke-width:1;stroke-miterlimit:4;stroke-dasharray:none;stroke-opacity:1"
       d="m 8.1206655,255.40419 c 0,0 13.9597855,-4.23333 20.9396775,-4.23333 14.661769,0.5913 28.681008,8.67503 41.879318,8.99583 6.979891,0 20.939673,-4.7625 20.939673,-4.7625 v 14.3132 c 0,0 -13.959782,4.7625 -20.939673,4.7625 -14.547519,-1.47295 -28.440751,-8.70548 -41.879319,-8.99583 -6.979892,0 -20.9396765,4.23333 -20.9396765,4.23333 z"
       id="rect815-3-6"
       inkscape:connector-curvature="0"
       sodipodi:nodetypes="ccccccccc" />
  </g>
</svg>
