<?xml version="1.0" encoding="UTF-8" standalone="no"?>
<svg
   xmlns:dc="http://purl.org/dc/elements/1.1/"
   xmlns:cc="http://creativecommons.org/ns#"
   xmlns:rdf="http://www.w3.org/1999/02/22-rdf-syntax-ns#"
   xmlns:svg="http://www.w3.org/2000/svg"
   xmlns="http://www.w3.org/2000/svg"
   xmlns:sodipodi="http://sodipodi.sourceforge.net/DTD/sodipodi-0.dtd"
   xmlns:inkscape="http://www.inkscape.org/namespaces/inkscape"
   width="100mm"
   height="100mm"
   viewBox="0 0 100 100"
   version="1.1"
   id="svg8"
   inkscape:version="0.92.4 (5da689c313, 2019-01-14)"
   sodipodi:docname="weave.svg">
  <metadata
     id="metadata875">
    <rdf:RDF>
      <cc:Work
         rdf:about="">
        <dc:format>image/svg+xml</dc:format>
        <dc:type
           rdf:resource="http://purl.org/dc/dcmitype/StillImage" />
      </cc:Work>
    </rdf:RDF>
  </metadata>
  <defs
     id="defs873" />
  <sodipodi:namedview
     pagecolor="#ffffff"
     bordercolor="#666666"
     borderopacity="1"
     objecttolerance="10"
     gridtolerance="10"
     guidetolerance="10"
     inkscape:pageopacity="0"
     inkscape:pageshadow="2"
     inkscape:window-width="1920"
     inkscape:window-height="995"
     id="namedview871"
     showgrid="false"
     inkscape:zoom="2.143125"
     inkscape:cx="188.97638"
     inkscape:cy="188.97638"
     inkscape:window-x="0"
     inkscape:window-y="28"
     inkscape:window-maximized="1"
     inkscape:current-layer="layer1" />
  <g
     inkscape:label="Layer 1"
     inkscape:groupmode="layer"
     id="layer1"
     transform="translate(0,-197)">
    <path
       style="fill:#ffffff;fill-opacity:1;stroke:#000000;stroke-width:1;stroke-miterlimit:4;stroke-dasharray:none;stroke-opacity:1"
       d="m 91.717794,224.48627 c 0,0 -14.046728,-3.93523 -21.025043,-3.78666 -14.645907,0.90326 -28.489882,9.28357 -41.678391,9.88523 -6.978302,0.14857 -21.0362998,-4.3157 -21.0362998,-4.3157 l 0.304653,14.30995 c 0,0 14.0580058,4.46428 21.0363188,4.3157 14.51287,-1.78227 28.248998,-9.30888 41.678392,-9.88522 6.978303,-0.14857 21.025041,3.78666 21.025041,3.78666 z"
       id="rect815-7"
       inkscape:connector-curvature="0"
       sodipodi:nodetypes="ccccccccc" />
    <path
       style="fill:#ffffff;fill-opacity:1;stroke:#000000;stroke-width:1;stroke-miterlimit:4;stroke-dasharray:none;stroke-opacity:1"
       d="m 45.08178,288.71753 c 0,0 3.93523,-14.04672 3.78666,-21.02504 -0.90326,-14.64591 -9.28357,-28.48988 -9.88523,-41.67839 -0.14857,-6.97831 4.3157,-21.0363 4.3157,-21.0363 l -14.30995,0.30465 c 0,0 -4.46428,14.05801 -4.3157,21.03632 1.78227,14.51287 9.30888,28.249 9.88522,41.67839 0.14857,6.97831 -3.78666,21.02505 -3.78666,21.02505 z"
       id="rect815-7-3-7"
       inkscape:connector-curvature="0"
       sodipodi:nodetypes="ccccccccc" />
    <path
       style="fill:#ffffff;fill-opacity:1;stroke:#000000;stroke-width:1;stroke-miterlimit:4;stroke-dasharray:none;stroke-opacity:1"
       d="m 91.717792,252.63993 c 0,0 -14.046726,-3.93523 -21.025043,-3.78666 -14.645907,0.90326 -28.48988,9.28357 -41.67839,9.88523 -6.978302,0.14857 -21.036299,-4.3157 -21.036299,-4.3157 l 0.304653,14.30995 c 0,0 14.058005,4.46428 21.036318,4.3157 14.512869,-1.78227 28.248999,-9.30888 41.678391,-9.88522 6.978304,-0.14857 21.025043,3.78666 21.025043,3.78666 z"
       id="rect815-7-3"
       inkscape:connector-curvature="0"
       sodipodi:nodetypes="ccccccccc" />
    <path
       style="fill:#ffffff;fill-opacity:1;stroke:#000000;stroke-width:1;stroke-miterlimit:4;stroke-dasharray:none;stroke-opacity:1"
       d="m 74.715132,288.71753 c 0,0 3.93523,-14.04672 3.78666,-21.02504 -0.90326,-14.64591 -9.28357,-28.48988 -9.88523,-41.67839 -0.14857,-6.97831 4.3157,-21.0363 4.3157,-21.0363 l -14.30995,0.30465 c 0,0 -4.46428,14.05801 -4.3157,21.03632 1.78227,14.51287 9.30888,28.249 9.88522,41.67839 0.14857,6.97831 -3.78666,21.02505 -3.78666,21.02505 z"
       id="rect815-7-6"
       inkscape:connector-curvature="0"
       sodipodi:nodetypes="ccccccccc" />
  </g>
</svg>
